# xmcd
#
# Track frame offsets:
#	150
#	15601
#	32359
#	46230
#	64709
#	80988
#	94220
#	109701
#	126050
#	141692
#	163223
#	181621
#	198851
#	215164
#	233236
#	248254
#	268872
#	282926
#	299691
#	314744
#	330058
#
# Disc length: 4602
#
# Revision: 1
# Processed by: cddbd v1.5.1PL0 Copyright (c) Steve Scherf et al.
# Submitted via: FreeRIP 2.90 
# Normalized: r0:TDELIM( - )
#
DISCID=3711f815
DTITLE=Dag allemaal vol 1
DYEAR=2005
DGENRE=Ballad
TTITLE0=Danny de munk - Ik voel me zo verdomd alleen
TTITLE1=Benny Neyman - Waarom fluister ik jouw naam nog
TTITLE2=Sandra Kim - J'aime la vie
TTITLE3=VOF de kunst - Een kopje koffie
TTITLE4=De Kreuners - Verliefd op chris lomme
TTITLE5=Ingeborg - Door de wind
TTITLE6=Isabelle A - He lekker beest
TTITLE7=Stef Bos and Bob - Breek de stilte
TTITLE8=Bart van den Bossche - De heuveltjes van erika
TTITLE9=Frank Boeijen - Paradijs
TTITLE10=Will Tura - Hoop doet leven
TTITLE11=Dana Winner - Westenwind
TTITLE12=Get Ready - Diep
TTITLE13=Mama's Jasje - Als de dag van toen
TTITLE14=Kim Kay - Lilali
TTITLE15=Volumnia - Afscheid
TTITLE16=Abel - Onderweg
TTITLE17=Twarres - Wer bisto
TTITLE18=K3 - Feest
TTITLE19=Wim Soutaer - Allemaal
TTITLE20=Spring - Met de trein naar oostende
EXTD=
EXTT0=
EXTT1=
EXTT2=
EXTT3=
EXTT4=
EXTT5=
EXTT6=
EXTT7=
EXTT8=
EXTT9=
EXTT10=
EXTT11=
EXTT12=
EXTT13=
EXTT14=
EXTT15=
EXTT16=
EXTT17=
EXTT18=
EXTT19=
EXTT20=
PLAYORDER=
